<svg id="visual" viewBox="0 0 1920 300" width="1920" height="300" xmlns="http://www.w3.org/2000/svg" xmlns:xlink="http://www.w3.org/1999/xlink" version="1.1"><rect x="0" y="0" width="1920" height="300" fill="#fff"></rect><path d="M0 168L45.7 152.8C91.3 137.7 182.7 107.3 274.2 104.3C365.7 101.3 457.3 125.7 548.8 144.8C640.3 164 731.7 178 823 168.3C914.3 158.7 1005.7 125.3 1097 129C1188.3 132.7 1279.7 173.3 1371.2 179.2C1462.7 185 1554.3 156 1645.8 156.3C1737.3 156.7 1828.7 186.3 1874.3 201.2L1920 216L1920 0L1874.3 0C1828.7 0 1737.3 0 1645.8 0C1554.3 0 1462.7 0 1371.2 0C1279.7 0 1188.3 0 1097 0C1005.7 0 914.3 0 823 0C731.7 0 640.3 0 548.8 0C457.3 0 365.7 0 274.2 0C182.7 0 91.3 0 45.7 0L0 0Z" fill="#586EEA" stroke-linecap="round" stroke-linejoin="miter"></path></svg>